# xmcd CD database file
#
# Track frame offsets:
#	150
#	21940
#	40647
#	65139
#	87052
#	111128
#	139476
#	158369
#	181301
#	207155
#	226258
#	239444
#	265335
#	285284
#	301747
#
# Disc length: 4270 seconds
#
# Revision: 1
# Processed by: cddbd v1.5.2PL0 Copyright (c) Steve Scherf et al.
# Submitted via: CDex 1.70beta2
#
DISCID=c210ac0f
DTITLE=Radoni's Tribe - Let Me Hear a Simple Song
DYEAR=2009
DGENRE=Jazz
TTITLE0=Ricordo
TTITLE1=Let Me Hear a Simple Song
TTITLE2=Storie vere
TTITLE3=Skin to Skin
TTITLE4=Vento
TTITLE5=Chove Sol
TTITLE6=My Li'l Angel
TTITLE7=Cupid's Wings (to Jean-Pierre Catoul)
TTITLE8=Ballad for One
TTITLE9=Touch of Silver
TTITLE10=Real Life
TTITLE11=Elegia
TTITLE12=Trapeze
TTITLE13=Levante
TTITLE14=Milano per caso
EXTD=YEAR: 2009
EXTT0=
EXTT1=
EXTT2=
EXTT3=
EXTT4=
EXTT5=
EXTT6=
EXTT7=
EXTT8=
EXTT9=
EXTT10=
EXTT11=
EXTT12=
EXTT13=
EXTT14=
PLAYORDER=
